# xmcd
#
# Track frame offsets:
#	150
#	16303
#	31557
#	47828
#	63779
#	78222
#	91599
#	110123
#	127269
#	142725
#	156368
#	175231
#	190718
#	204060
#	222135
#	238809
#	250840
#	268409
#	284946
#	302986
#	318044
#	331231
#	344727
#
# Disc length: 4778 seconds
#
# Revision: 0
# Processed by: cddbd v1.5.1PL0 Copyright (c) Steve Scherf et al.
# Submitted via: audiograbber 1.83.01
#
DISCID=4b12a817
DTITLE=Various Artist - Хиты Этого Лета
DYEAR=2004
DGENRE=Pop
TTITLE0=Despina Vandi - Opa Opa
TTITLE1=Flexy - Mamasita
TTITLE2=O-Zone - Dragostea Din Tei (haiducii vs.Garby Ponte Mix)
TTITLE3=Little Menace - Come'n'Gimme Your
TTITLE4=Toniee - Kick It (Video Mix)
TTITLE5=Tarkan - Dudu (NeoMaster Dance Mix)
TTITLE6=Bosson - Say You Will
TTITLE7=Darren Hayes - Strange Magic
TTITLE8=Da Buzz - Stay Forever Young
TTITLE9=Beach Bumpers - Altogether  (Dance Mix)
TTITLE10=Village people vs Dub Jay - Y.M.C.A.
TTITLE11=A-Teens - I Promised Myself
TTITLE12=Karma Club - Lucky Star (Pasta People Radio Mix)
TTITLE13=Lionel Richie - Just For You (Tod Terry Pop Radio Remix)
TTITLE14=Britney Spears - Everytime (Alone and Beyond Radio Mix)
TTITLE15=Kim Lucas - Fiesta Fever-Fiesta Fever (Gamma edit)
TTITLE16=Brio From Rio - A Song For You
TTITLE17=Grenada - My First Love
TTITLE18=RSDJ - Elektrodancing (Elektro edit)
TTITLE19=Whigfield - Was A Time
TTITLE20=Boogie Pimps - Sunny
TTITLE21=Smash - Obsession
TTITLE22=Ruslana - Wild Dance (Ukraine)
EXTD=
EXTT0=
EXTT1=
EXTT2=
EXTT3=
EXTT4=
EXTT5=
EXTT6=
EXTT7=
EXTT8=
EXTT9=
EXTT10=
EXTT11=
EXTT12=
EXTT13=
EXTT14=
EXTT15=
EXTT16=
EXTT17=
EXTT18=
EXTT19=
EXTT20=
EXTT21=
EXTT22=
PLAYORDER=
